<svg id="Calque_1" data-name="Calque 1" xmlns="http://www.w3.org/2000/svg" viewBox="0 0 1015.67 251.43"><defs><style>.cls-1{fill:#fff;}</style></defs><title>ecal+</title><polygon class="cls-1" points="0 245.1 135.85 245.1 144.09 192.54 70.3 192.54 76.96 151.37 146.94 151.37 155.18 98.8 85.18 98.8 91.53 58.89 165.31 58.89 173.53 6.33 37.69 6.33 0 245.1"/><path class="cls-1" d="M424.56,202.37c21.22,0,40.53,9.18,50.36,26.28l12-74.42c-17.41-7.61-34.83-12-54.78-12-33.57,0-70,14.56-97.22,38.63-26.29,23.44-43.71,54.79-48.77,87.4-5.7,35.48,1.27,66.51,23.76,90.26,21.21,22.48,51,35.14,84.23,35.14,19.31,0,34.83-4.74,56.36-11.07l12-74.43c-15.52,15.52-37.37,25.33-57.64,25.33-38.63,0-60.17-27.23-54.46-64.91C356.47,231.49,386.56,202.37,424.56,202.37Z" transform="translate(-101.78 -142.2)"/><path class="cls-1" d="M599.48,148.53,470,387.3h65.87L559,345.81h85.5l8.86,41.49H719.5L667.25,148.53ZM583.65,298.32l37.69-76H622l13.29,76Z" transform="translate(-101.78 -142.2)"/><polygon class="cls-1" points="740.09 6.33 678.03 6.33 640.34 245.1 776.95 244.99 785.06 192.54 710.64 192.54 740.09 6.33"/><polygon class="cls-1" points="929.22 97.2 929.22 4.94 871.28 4.94 871.28 97.2 784.84 97.2 784.84 153.81 871.28 153.81 871.28 246.07 929.22 246.07 929.22 153.81 1015.67 153.81 1015.67 97.2 929.22 97.2"/></svg>